<mxfile host="app.diagrams.net" modified="2022-04-04T06:53:57.517Z" agent="5.0 (Windows NT 10.0; Win64; x64) AppleWebKit/537.36 (KHTML, like Gecko) Chrome/100.0.4896.60 Safari/537.36 Edg/100.0.1185.29" etag="VGG-axBn6aEniCHZ_poc" version="17.4.0" type="github">
  <diagram id="mKGkm3V1BIL7vcjju2ph" name="Page-1">
    <mxGraphModel dx="1422" dy="794" grid="1" gridSize="10" guides="1" tooltips="1" connect="1" arrows="1" fold="1" page="1" pageScale="1" pageWidth="827" pageHeight="1169" math="0" shadow="0">
      <root>
        <mxCell id="0" />
        <mxCell id="1" parent="0" />
        <mxCell id="RtCiX2fIsjAJC0oQLDJv-1" value="App Inventor2" style="swimlane;fontStyle=1;childLayout=stackLayout;horizontal=1;startSize=30;horizontalStack=0;resizeParent=1;resizeParentMax=0;resizeLast=0;collapsible=1;marginBottom=0;" parent="1" vertex="1">
          <mxGeometry x="40" y="280" width="140" height="120" as="geometry" />
        </mxCell>
        <mxCell id="RtCiX2fIsjAJC0oQLDJv-2" value="1. 자동제어 " style="text;strokeColor=none;fillColor=none;align=left;verticalAlign=middle;spacingLeft=4;spacingRight=4;overflow=hidden;points=[[0,0.5],[1,0.5]];portConstraint=eastwest;rotatable=0;" parent="RtCiX2fIsjAJC0oQLDJv-1" vertex="1">
          <mxGeometry y="30" width="140" height="30" as="geometry" />
        </mxCell>
        <mxCell id="RtCiX2fIsjAJC0oQLDJv-3" value="2. 수동제어" style="text;strokeColor=none;fillColor=none;align=left;verticalAlign=middle;spacingLeft=4;spacingRight=4;overflow=hidden;points=[[0,0.5],[1,0.5]];portConstraint=eastwest;rotatable=0;" parent="RtCiX2fIsjAJC0oQLDJv-1" vertex="1">
          <mxGeometry y="60" width="140" height="30" as="geometry" />
        </mxCell>
        <mxCell id="RtCiX2fIsjAJC0oQLDJv-4" value="3. 목표제어" style="text;strokeColor=none;fillColor=none;align=left;verticalAlign=middle;spacingLeft=4;spacingRight=4;overflow=hidden;points=[[0,0.5],[1,0.5]];portConstraint=eastwest;rotatable=0;" parent="RtCiX2fIsjAJC0oQLDJv-1" vertex="1">
          <mxGeometry y="90" width="140" height="30" as="geometry" />
        </mxCell>
        <mxCell id="RtCiX2fIsjAJC0oQLDJv-13" value="Arduino" style="swimlane;fontStyle=1;childLayout=stackLayout;horizontal=1;startSize=30;horizontalStack=0;resizeParent=1;resizeParentMax=0;resizeLast=0;collapsible=1;marginBottom=0;" parent="1" vertex="1">
          <mxGeometry x="250" y="280" width="140" height="120" as="geometry" />
        </mxCell>
        <mxCell id="RtCiX2fIsjAJC0oQLDJv-14" value="1. Temperature Sensor" style="text;strokeColor=none;fillColor=none;align=left;verticalAlign=middle;spacingLeft=4;spacingRight=4;overflow=hidden;points=[[0,0.5],[1,0.5]];portConstraint=eastwest;rotatable=0;" parent="RtCiX2fIsjAJC0oQLDJv-13" vertex="1">
          <mxGeometry y="30" width="140" height="30" as="geometry" />
        </mxCell>
        <mxCell id="RtCiX2fIsjAJC0oQLDJv-15" value="2. Humidity Sensor" style="text;strokeColor=none;fillColor=none;align=left;verticalAlign=middle;spacingLeft=4;spacingRight=4;overflow=hidden;points=[[0,0.5],[1,0.5]];portConstraint=eastwest;rotatable=0;" parent="RtCiX2fIsjAJC0oQLDJv-13" vertex="1">
          <mxGeometry y="60" width="140" height="30" as="geometry" />
        </mxCell>
        <mxCell id="RtCiX2fIsjAJC0oQLDJv-16" value="3. illuminance Sensor" style="text;strokeColor=none;fillColor=none;align=left;verticalAlign=middle;spacingLeft=4;spacingRight=4;overflow=hidden;points=[[0,0.5],[1,0.5]];portConstraint=eastwest;rotatable=0;" parent="RtCiX2fIsjAJC0oQLDJv-13" vertex="1">
          <mxGeometry y="90" width="140" height="30" as="geometry" />
        </mxCell>
        <mxCell id="RtCiX2fIsjAJC0oQLDJv-17" value="" style="endArrow=classic;html=1;rounded=0;" parent="1" edge="1">
          <mxGeometry width="50" height="50" relative="1" as="geometry">
            <mxPoint x="180" y="350" as="sourcePoint" />
            <mxPoint x="250" y="350" as="targetPoint" />
          </mxGeometry>
        </mxCell>
        <mxCell id="RtCiX2fIsjAJC0oQLDJv-18" value="Temperature Sensor" style="swimlane;fontStyle=1;childLayout=stackLayout;horizontal=1;startSize=30;horizontalStack=0;resizeParent=1;resizeParentMax=0;resizeLast=0;collapsible=1;marginBottom=0;" parent="1" vertex="1">
          <mxGeometry x="440" y="100" width="140" height="90" as="geometry" />
        </mxCell>
        <mxCell id="RtCiX2fIsjAJC0oQLDJv-19" value="1. 설정 온도 보다&#xa;    높을 경우" style="text;strokeColor=none;fillColor=none;align=left;verticalAlign=middle;spacingLeft=4;spacingRight=4;overflow=hidden;points=[[0,0.5],[1,0.5]];portConstraint=eastwest;rotatable=0;" parent="RtCiX2fIsjAJC0oQLDJv-18" vertex="1">
          <mxGeometry y="30" width="140" height="30" as="geometry" />
        </mxCell>
        <mxCell id="RtCiX2fIsjAJC0oQLDJv-20" value="2. 설정 온도 보다&#xa;    낮을 경우" style="text;strokeColor=none;fillColor=none;align=left;verticalAlign=middle;spacingLeft=4;spacingRight=4;overflow=hidden;points=[[0,0.5],[1,0.5]];portConstraint=eastwest;rotatable=0;" parent="RtCiX2fIsjAJC0oQLDJv-18" vertex="1">
          <mxGeometry y="60" width="140" height="30" as="geometry" />
        </mxCell>
        <mxCell id="RtCiX2fIsjAJC0oQLDJv-22" value="Humidity Sensor" style="swimlane;fontStyle=1;childLayout=stackLayout;horizontal=1;startSize=30;horizontalStack=0;resizeParent=1;resizeParentMax=0;resizeLast=0;collapsible=1;marginBottom=0;" parent="1" vertex="1">
          <mxGeometry x="440" y="290" width="140" height="90" as="geometry" />
        </mxCell>
        <mxCell id="RtCiX2fIsjAJC0oQLDJv-23" value="1. 설정 습도 보다 &#xa;    높을 경우" style="text;strokeColor=none;fillColor=none;align=left;verticalAlign=middle;spacingLeft=4;spacingRight=4;overflow=hidden;points=[[0,0.5],[1,0.5]];portConstraint=eastwest;rotatable=0;" parent="RtCiX2fIsjAJC0oQLDJv-22" vertex="1">
          <mxGeometry y="30" width="140" height="30" as="geometry" />
        </mxCell>
        <mxCell id="RtCiX2fIsjAJC0oQLDJv-24" value="2. 설정 습도 보다&#xa;    낮을 경우" style="text;strokeColor=none;fillColor=none;align=left;verticalAlign=middle;spacingLeft=4;spacingRight=4;overflow=hidden;points=[[0,0.5],[1,0.5]];portConstraint=eastwest;rotatable=0;" parent="RtCiX2fIsjAJC0oQLDJv-22" vertex="1">
          <mxGeometry y="60" width="140" height="30" as="geometry" />
        </mxCell>
        <mxCell id="RtCiX2fIsjAJC0oQLDJv-26" value="illuminance Sensor" style="swimlane;fontStyle=1;childLayout=stackLayout;horizontal=1;startSize=30;horizontalStack=0;resizeParent=1;resizeParentMax=0;resizeLast=0;collapsible=1;marginBottom=0;" parent="1" vertex="1">
          <mxGeometry x="440" y="470" width="140" height="90" as="geometry" />
        </mxCell>
        <mxCell id="RtCiX2fIsjAJC0oQLDJv-53" value="1. 설정 조도 보다&#xa;    높을 경우" style="text;strokeColor=none;fillColor=none;align=left;verticalAlign=middle;spacingLeft=4;spacingRight=4;overflow=hidden;points=[[0,0.5],[1,0.5]];portConstraint=eastwest;rotatable=0;" parent="RtCiX2fIsjAJC0oQLDJv-26" vertex="1">
          <mxGeometry y="30" width="140" height="30" as="geometry" />
        </mxCell>
        <mxCell id="RtCiX2fIsjAJC0oQLDJv-28" value="2. 설정 조도 보다&#xa;    낮을 경우" style="text;strokeColor=none;fillColor=none;align=left;verticalAlign=middle;spacingLeft=4;spacingRight=4;overflow=hidden;points=[[0,0.5],[1,0.5]];portConstraint=eastwest;rotatable=0;" parent="RtCiX2fIsjAJC0oQLDJv-26" vertex="1">
          <mxGeometry y="60" width="140" height="30" as="geometry" />
        </mxCell>
        <mxCell id="RtCiX2fIsjAJC0oQLDJv-31" value="Heater, Cooling Fan" style="swimlane;fontStyle=1;childLayout=stackLayout;horizontal=1;startSize=30;horizontalStack=0;resizeParent=1;resizeParentMax=0;resizeLast=0;collapsible=1;marginBottom=0;" parent="1" vertex="1">
          <mxGeometry x="620" y="60" width="140" height="60" as="geometry" />
        </mxCell>
        <mxCell id="RtCiX2fIsjAJC0oQLDJv-32" value=" Heater OFF,&#xa; Cooling Fan ON " style="text;strokeColor=none;fillColor=none;align=left;verticalAlign=middle;spacingLeft=4;spacingRight=4;overflow=hidden;points=[[0,0.5],[1,0.5]];portConstraint=eastwest;rotatable=0;" parent="RtCiX2fIsjAJC0oQLDJv-31" vertex="1">
          <mxGeometry y="30" width="140" height="30" as="geometry" />
        </mxCell>
        <mxCell id="RtCiX2fIsjAJC0oQLDJv-34" value="Heater, Cooling Fan" style="swimlane;fontStyle=1;childLayout=stackLayout;horizontal=1;startSize=30;horizontalStack=0;resizeParent=1;resizeParentMax=0;resizeLast=0;collapsible=1;marginBottom=0;" parent="1" vertex="1">
          <mxGeometry x="620" y="160" width="140" height="60" as="geometry" />
        </mxCell>
        <mxCell id="RtCiX2fIsjAJC0oQLDJv-35" value="Heater ON,&#xa;Cooling Fan OFF" style="text;strokeColor=none;fillColor=none;align=left;verticalAlign=middle;spacingLeft=4;spacingRight=4;overflow=hidden;points=[[0,0.5],[1,0.5]];portConstraint=eastwest;rotatable=0;" parent="RtCiX2fIsjAJC0oQLDJv-34" vertex="1">
          <mxGeometry y="30" width="140" height="30" as="geometry" />
        </mxCell>
        <mxCell id="RtCiX2fIsjAJC0oQLDJv-36" value="&lt;b style=&quot;font-size: 14px&quot;&gt;Blue&lt;br&gt;Tooth&lt;/b&gt;" style="text;html=1;strokeColor=none;fillColor=none;align=center;verticalAlign=middle;whiteSpace=wrap;rounded=0;" parent="1" vertex="1">
          <mxGeometry x="184" y="310" width="60" height="30" as="geometry" />
        </mxCell>
        <mxCell id="RtCiX2fIsjAJC0oQLDJv-37" value="Water Pump" style="swimlane;fontStyle=1;childLayout=stackLayout;horizontal=1;startSize=30;horizontalStack=0;resizeParent=1;resizeParentMax=0;resizeLast=0;collapsible=1;marginBottom=0;" parent="1" vertex="1">
          <mxGeometry x="620" y="260" width="140" height="60" as="geometry" />
        </mxCell>
        <mxCell id="RtCiX2fIsjAJC0oQLDJv-38" value="Water Pump OFF" style="text;strokeColor=none;fillColor=none;align=left;verticalAlign=middle;spacingLeft=4;spacingRight=4;overflow=hidden;points=[[0,0.5],[1,0.5]];portConstraint=eastwest;rotatable=0;" parent="RtCiX2fIsjAJC0oQLDJv-37" vertex="1">
          <mxGeometry y="30" width="140" height="30" as="geometry" />
        </mxCell>
        <mxCell id="RtCiX2fIsjAJC0oQLDJv-39" value="Water Pump" style="swimlane;fontStyle=1;childLayout=stackLayout;horizontal=1;startSize=30;horizontalStack=0;resizeParent=1;resizeParentMax=0;resizeLast=0;collapsible=1;marginBottom=0;" parent="1" vertex="1">
          <mxGeometry x="620" y="350" width="140" height="60" as="geometry" />
        </mxCell>
        <mxCell id="RtCiX2fIsjAJC0oQLDJv-40" value="Water Pump ON" style="text;strokeColor=none;fillColor=none;align=left;verticalAlign=middle;spacingLeft=4;spacingRight=4;overflow=hidden;points=[[0,0.5],[1,0.5]];portConstraint=eastwest;rotatable=0;" parent="RtCiX2fIsjAJC0oQLDJv-39" vertex="1">
          <mxGeometry y="30" width="140" height="30" as="geometry" />
        </mxCell>
        <mxCell id="RtCiX2fIsjAJC0oQLDJv-41" value="LED " style="swimlane;fontStyle=1;childLayout=stackLayout;horizontal=1;startSize=30;horizontalStack=0;resizeParent=1;resizeParentMax=0;resizeLast=0;collapsible=1;marginBottom=0;" parent="1" vertex="1">
          <mxGeometry x="620" y="440" width="140" height="60" as="geometry" />
        </mxCell>
        <mxCell id="RtCiX2fIsjAJC0oQLDJv-42" value="LED OFF" style="text;strokeColor=none;fillColor=none;align=left;verticalAlign=middle;spacingLeft=4;spacingRight=4;overflow=hidden;points=[[0,0.5],[1,0.5]];portConstraint=eastwest;rotatable=0;" parent="RtCiX2fIsjAJC0oQLDJv-41" vertex="1">
          <mxGeometry y="30" width="140" height="30" as="geometry" />
        </mxCell>
        <mxCell id="RtCiX2fIsjAJC0oQLDJv-43" value="LED" style="swimlane;fontStyle=1;childLayout=stackLayout;horizontal=1;startSize=30;horizontalStack=0;resizeParent=1;resizeParentMax=0;resizeLast=0;collapsible=1;marginBottom=0;" parent="1" vertex="1">
          <mxGeometry x="620" y="540" width="140" height="60" as="geometry" />
        </mxCell>
        <mxCell id="RtCiX2fIsjAJC0oQLDJv-44" value="LED ON" style="text;strokeColor=none;fillColor=none;align=left;verticalAlign=middle;spacingLeft=4;spacingRight=4;overflow=hidden;points=[[0,0.5],[1,0.5]];portConstraint=eastwest;rotatable=0;" parent="RtCiX2fIsjAJC0oQLDJv-43" vertex="1">
          <mxGeometry y="30" width="140" height="30" as="geometry" />
        </mxCell>
        <mxCell id="RtCiX2fIsjAJC0oQLDJv-46" value="" style="edgeStyle=elbowEdgeStyle;elbow=horizontal;endArrow=classic;html=1;rounded=0;entryX=0.007;entryY=0.733;entryDx=0;entryDy=0;entryPerimeter=0;" parent="1" edge="1">
          <mxGeometry width="50" height="50" relative="1" as="geometry">
            <mxPoint x="388" y="340" as="sourcePoint" />
            <mxPoint x="434.98" y="140.99" as="targetPoint" />
            <Array as="points">
              <mxPoint x="413" y="240" />
              <mxPoint x="409" y="319" />
              <mxPoint x="409" y="339" />
            </Array>
          </mxGeometry>
        </mxCell>
        <mxCell id="RtCiX2fIsjAJC0oQLDJv-47" value="" style="endArrow=classic;html=1;rounded=0;" parent="1" edge="1">
          <mxGeometry width="50" height="50" relative="1" as="geometry">
            <mxPoint x="390" y="339.5" as="sourcePoint" />
            <mxPoint x="440" y="339.5" as="targetPoint" />
          </mxGeometry>
        </mxCell>
        <mxCell id="RtCiX2fIsjAJC0oQLDJv-51" value="" style="edgeStyle=elbowEdgeStyle;elbow=horizontal;endArrow=classic;html=1;rounded=0;entryX=-0.007;entryY=0.767;entryDx=0;entryDy=0;entryPerimeter=0;exitX=1.021;exitY=-0.1;exitDx=0;exitDy=0;exitPerimeter=0;" parent="1" edge="1">
          <mxGeometry width="50" height="50" relative="1" as="geometry">
            <mxPoint x="392.94000000000005" y="340" as="sourcePoint" />
            <mxPoint x="437.02" y="526.01" as="targetPoint" />
            <Array as="points">
              <mxPoint x="413" y="453" />
            </Array>
          </mxGeometry>
        </mxCell>
        <mxCell id="RtCiX2fIsjAJC0oQLDJv-55" value="" style="edgeStyle=elbowEdgeStyle;elbow=horizontal;endArrow=classic;html=1;rounded=0;" parent="1" edge="1">
          <mxGeometry width="50" height="50" relative="1" as="geometry">
            <mxPoint x="580" y="140" as="sourcePoint" />
            <mxPoint x="620" y="90" as="targetPoint" />
            <Array as="points">
              <mxPoint x="590" y="110" />
            </Array>
          </mxGeometry>
        </mxCell>
        <mxCell id="RtCiX2fIsjAJC0oQLDJv-56" value="" style="edgeStyle=elbowEdgeStyle;elbow=horizontal;endArrow=classic;html=1;rounded=0;entryX=0.007;entryY=0.133;entryDx=0;entryDy=0;entryPerimeter=0;" parent="1" target="RtCiX2fIsjAJC0oQLDJv-35" edge="1">
          <mxGeometry width="50" height="50" relative="1" as="geometry">
            <mxPoint x="590" y="140" as="sourcePoint" />
            <mxPoint x="630" y="120" as="targetPoint" />
            <Array as="points">
              <mxPoint x="590" y="140" />
              <mxPoint x="600" y="160" />
            </Array>
          </mxGeometry>
        </mxCell>
        <mxCell id="RtCiX2fIsjAJC0oQLDJv-57" value="" style="edgeStyle=elbowEdgeStyle;elbow=horizontal;endArrow=classic;html=1;rounded=0;" parent="1" edge="1">
          <mxGeometry width="50" height="50" relative="1" as="geometry">
            <mxPoint x="580" y="340" as="sourcePoint" />
            <mxPoint x="620" y="290" as="targetPoint" />
            <Array as="points">
              <mxPoint x="590" y="310" />
            </Array>
          </mxGeometry>
        </mxCell>
        <mxCell id="RtCiX2fIsjAJC0oQLDJv-58" value="" style="edgeStyle=elbowEdgeStyle;elbow=horizontal;endArrow=classic;html=1;rounded=0;entryX=0.007;entryY=0.133;entryDx=0;entryDy=0;entryPerimeter=0;" parent="1" edge="1">
          <mxGeometry width="50" height="50" relative="1" as="geometry">
            <mxPoint x="590" y="340" as="sourcePoint" />
            <mxPoint x="621" y="380" as="targetPoint" />
            <Array as="points">
              <mxPoint x="590.02" y="326.01" />
              <mxPoint x="600.02" y="346.01" />
            </Array>
          </mxGeometry>
        </mxCell>
        <mxCell id="RtCiX2fIsjAJC0oQLDJv-59" value="" style="edgeStyle=elbowEdgeStyle;elbow=horizontal;endArrow=classic;html=1;rounded=0;" parent="1" edge="1">
          <mxGeometry width="50" height="50" relative="1" as="geometry">
            <mxPoint x="579.02" y="520" as="sourcePoint" />
            <mxPoint x="619.02" y="470" as="targetPoint" />
            <Array as="points">
              <mxPoint x="589.02" y="490" />
            </Array>
          </mxGeometry>
        </mxCell>
        <mxCell id="RtCiX2fIsjAJC0oQLDJv-60" value="" style="edgeStyle=elbowEdgeStyle;elbow=horizontal;endArrow=classic;html=1;rounded=0;entryX=0.007;entryY=0.133;entryDx=0;entryDy=0;entryPerimeter=0;" parent="1" edge="1">
          <mxGeometry width="50" height="50" relative="1" as="geometry">
            <mxPoint x="589.02" y="520" as="sourcePoint" />
            <mxPoint x="620" y="573.99" as="targetPoint" />
            <Array as="points">
              <mxPoint x="589.02" y="520" />
              <mxPoint x="599.02" y="540" />
            </Array>
          </mxGeometry>
        </mxCell>
        <mxCell id="RtCiX2fIsjAJC0oQLDJv-61" value="&lt;font style=&quot;font-size: 12px&quot;&gt;1.&lt;/font&gt;" style="text;strokeColor=none;fillColor=none;html=1;fontSize=24;fontStyle=1;verticalAlign=middle;align=center;" parent="1" vertex="1">
          <mxGeometry x="555" y="50" width="100" height="40" as="geometry" />
        </mxCell>
        <mxCell id="RtCiX2fIsjAJC0oQLDJv-62" value="&lt;font style=&quot;font-size: 12px&quot;&gt;2.&lt;/font&gt;" style="text;strokeColor=none;fillColor=none;html=1;fontSize=24;fontStyle=1;verticalAlign=middle;align=center;" parent="1" vertex="1">
          <mxGeometry x="590" y="150" width="30" height="40" as="geometry" />
        </mxCell>
        <mxCell id="RtCiX2fIsjAJC0oQLDJv-63" value="&lt;font style=&quot;font-size: 12px&quot;&gt;2.&lt;/font&gt;" style="text;strokeColor=none;fillColor=none;html=1;fontSize=24;fontStyle=1;verticalAlign=middle;align=center;" parent="1" vertex="1">
          <mxGeometry x="590" y="340" width="30" height="40" as="geometry" />
        </mxCell>
        <mxCell id="RtCiX2fIsjAJC0oQLDJv-64" value="&lt;font style=&quot;font-size: 12px&quot;&gt;&lt;b&gt;2.&lt;/b&gt;&lt;/font&gt;" style="text;strokeColor=none;fillColor=none;html=1;fontSize=24;fontStyle=0;verticalAlign=middle;align=center;" parent="1" vertex="1">
          <mxGeometry x="590" y="533" width="30" height="40" as="geometry" />
        </mxCell>
        <mxCell id="RtCiX2fIsjAJC0oQLDJv-65" value="&lt;font style=&quot;font-size: 12px&quot;&gt;1.&lt;/font&gt;" style="text;strokeColor=none;fillColor=none;html=1;fontSize=24;fontStyle=1;verticalAlign=middle;align=center;" parent="1" vertex="1">
          <mxGeometry x="590" y="250" width="30" height="40" as="geometry" />
        </mxCell>
        <mxCell id="RtCiX2fIsjAJC0oQLDJv-66" value="&lt;font style=&quot;font-size: 12px&quot;&gt;1.&lt;/font&gt;" style="text;strokeColor=none;fillColor=none;html=1;fontSize=24;fontStyle=1;verticalAlign=middle;align=center;" parent="1" vertex="1">
          <mxGeometry x="590" y="430" width="30" height="40" as="geometry" />
        </mxCell>
      </root>
    </mxGraphModel>
  </diagram>
</mxfile>
